<?xml version="1.0" standalone="no"?><!DOCTYPE svg PUBLIC "-//W3C//DTD SVG 1.1//EN" "http://www.w3.org/Graphics/SVG/1.1/DTD/svg11.dtd"><svg t="1607501055744" class="icon" viewBox="0 0 1024 1024" version="1.1" xmlns="http://www.w3.org/2000/svg" p-id="6062" xmlns:xlink="http://www.w3.org/1999/xlink" width="200" height="200"><defs><style type="text/css"></style></defs><path d="M125.207273 93.090909A32.116364 32.116364 0 0 0 93.090909 125.207273v773.585454a32.349091 32.349091 0 0 0 64.465455 0V125.207273A32.581818 32.581818 0 0 0 125.207273 93.090909z m773.585454 773.352727H125.207273a32.349091 32.349091 0 0 0 0 64.465455h773.585454a32.349091 32.349091 0 0 0 0-64.465455zM125.207273 93.090909A32.116364 32.116364 0 0 0 93.090909 125.207273v773.585454a32.349091 32.349091 0 0 0 64.465455 0V125.207273A32.581818 32.581818 0 0 0 125.207273 93.090909z m311.389091 268.8a33.047273 33.047273 0 0 0-23.272728 9.309091L232.727273 553.658182a32.116364 32.116364 0 1 0 46.545454 46.545454l182.225455-182.225454a32.116364 32.116364 0 0 0-23.272727-55.156364z m0 0a32.116364 32.116364 0 0 0-23.272728 54.923636l182.225455 182.225455a32.349091 32.349091 0 0 0 31.418182 9.076364 32.814545 32.814545 0 0 0 23.272727-23.272728 32.349091 32.349091 0 0 0-8.843636-31.418181L459.636364 372.363636a32.349091 32.349091 0 0 0-22.807273-10.472727z m409.367272-46.545454a32.349091 32.349091 0 0 0-23.272727 9.541818l-228.072727 227.84a32.349091 32.349091 0 1 0 46.545454 46.545454L869.003636 372.363636a32.349091 32.349091 0 0 0-23.272727-55.156363z" p-id="6063"></path></svg>